<?xml version="1.0" standalone="no"?>
<!DOCTYPE svg PUBLIC "-//W3C//DTD SVG 20010904//EN"
 "http://www.w3.org/TR/2001/REC-SVG-20010904/DTD/svg10.dtd">
<svg version="1.0" xmlns="http://www.w3.org/2000/svg"
 width="340.000000pt" height="270.000000pt" viewBox="0 0 340.000000 270.000000"
 preserveAspectRatio="xMidYMid meet">

<g transform="translate(0.000000,270.000000) scale(0.100000,-0.100000)"
fill="#000000" stroke="none">
<path d="M1617 2333 c-4 -3 -7 -189 -7 -413 l0 -407 25 -11 c32 -15 85 -15
119 -2 l26 10 0 415 0 415 -78 0 c-43 0 -82 -3 -85 -7z"/>
<path d="M1477 2290 c-112 -30 -212 -83 -275 -147 -94 -95 -140 -212 -164
-413 -12 -102 -15 -111 -104 -295 -119 -246 -158 -347 -183 -472 -22 -105 -25
-174 -11 -208 10 -24 11 -21 35 90 27 123 90 297 154 430 71 145 150 238 239
282 51 25 67 28 157 27 96 0 144 -11 258 -59 13 -6 17 -2 17 18 0 20 -10 29
-57 50 -98 43 -161 57 -262 58 -76 0 -91 2 -71 11 44 18 197 4 280 -26 41 -15
83 -29 93 -33 17 -5 18 -1 13 48 -3 30 -8 190 -12 357 -6 269 -9 302 -23 301
-9 0 -46 -9 -84 -19z"/>
<path d="M1816 2158 c-12 -303 -19 -558 -14 -558 2 0 42 14 89 31 65 24 105
33 179 36 52 3 106 0 120 -5 19 -7 4 -10 -67 -10 -149 -1 -323 -59 -323 -107
l0 -23 88 31 c72 25 103 31 182 31 83 1 102 -2 151 -25 104 -49 172 -128 256
-302 51 -102 135 -352 153 -450 16 -85 32 -76 32 17 -1 160 -58 328 -223 658
-63 126 -70 145 -79 230 -13 122 -17 139 -47 231 -59 183 -177 286 -396 347
-39 11 -77 20 -83 20 -8 0 -13 -49 -18 -152z"/>
<path d="M1224 1534 c-117 -36 -223 -160 -308 -363 -64 -152 -142 -438 -124
-456 20 -21 283 -93 418 -116 41 -7 82 -18 91 -26 8 -7 26 -13 39 -13 12 0 97
-46 189 -101 l166 -102 35 20 c19 11 95 56 169 101 74 45 143 82 154 82 10 0
31 6 45 14 15 8 86 26 157 40 139 27 355 92 355 107 0 33 -48 220 -81 318 -88
258 -194 418 -317 478 -52 25 -67 28 -157 27 -83 -1 -113 -6 -175 -29 -41 -15
-101 -35 -133 -43 l-57 -17 -126 43 c-148 51 -255 62 -340 36z m276 -43 c29
-11 68 -30 86 -43 34 -23 34 -23 32 -93 l-3 -70 -46 -23 c-76 -37 -147 -48
-239 -34 -101 14 -170 43 -170 71 0 39 40 127 72 158 69 67 154 77 268 34z
m619 4 c42 -21 88 -87 107 -154 16 -52 16 -55 -2 -68 -38 -28 -129 -47 -224
-47 -87 -1 -101 2 -162 31 l-68 32 0 65 c0 72 5 78 97 125 86 43 187 50 252
16z m-391 -127 c8 -10 0 -13 -34 -13 -38 0 -42 2 -27 13 9 6 24 12 34 12 9 0
21 -6 27 -12z m2 -56 c21 -17 20 -17 -29 -17 -28 0 -51 2 -51 4 0 7 35 30 46
31 7 0 22 -8 34 -18z m11 -63 c21 -18 21 -20 4 -13 -26 10 -65 10 -90 -1 -20
-8 -20 -8 -1 13 24 28 57 28 87 1z m-436 -65 c44 -4 111 -2 150 4 38 6 71 10
73 8 2 -2 -21 -12 -50 -22 -70 -25 -274 -27 -288 -4 -16 24 -11 33 13 26 12
-4 58 -9 102 -12z m745 1 c47 0 102 3 123 7 28 5 37 3 37 -7 0 -8 -9 -19 -19
-25 -29 -15 -163 -12 -241 6 -81 18 -105 37 -33 26 26 -4 86 -7 133 -7z m-309
-45 c15 -9 19 -22 19 -68 0 -56 1 -58 50 -100 87 -75 253 -315 225 -326 -9 -3
-30 21 -61 72 -117 188 -211 282 -283 282 -57 0 -173 -122 -267 -280 -46 -79
-57 -90 -69 -70 -10 16 123 208 202 291 70 73 73 78 73 124 0 31 6 55 17 67
18 20 64 24 94 8z m244 -36 c57 -9 120 -12 148 -9 26 4 47 3 47 -1 0 -21 -95
-273 -100 -267 -29 33 -238 291 -244 300 -5 10 -1 11 21 2 15 -5 73 -17 128
-25z m-437 9 c-8 -10 -63 -78 -123 -150 -59 -73 -110 -133 -114 -133 -3 0 -27
60 -53 133 l-46 133 102 2 c55 0 126 8 156 16 30 7 64 14 74 15 17 1 18 -1 4
-16z m-303 -253 c47 -107 83 -201 80 -209 -9 -24 -20 -3 -79 151 -31 81 -65
168 -76 193 -19 44 -26 74 -15 63 3 -2 43 -92 90 -198z m919 -23 c-55 -139
-80 -194 -90 -190 -16 6 -23 -14 87 236 40 93 75 165 77 159 1 -5 -32 -97 -74
-205z m-629 117 c-36 -36 -91 -105 -124 -154 -32 -49 -61 -87 -65 -83 -13 13
-5 36 26 77 41 53 209 226 220 226 4 0 -22 -30 -57 -66z m390 -47 c108 -117
139 -162 127 -183 -7 -12 -19 0 -56 60 -26 42 -82 112 -124 157 -42 45 -67 77
-55 71 12 -7 60 -54 108 -105z m-268 -127 c-1 -88 0 -160 3 -161 3 -1 21 -2
40 -2 l35 -2 3 163 c1 89 6 162 10 162 26 0 32 -30 32 -172 0 -81 3 -148 8
-149 4 -1 23 -2 42 -3 l35 -1 3 100 3 99 19 -29 c15 -23 20 -47 20 -100 l0
-70 50 3 c45 4 50 2 50 -17 0 -21 -2 -21 -315 -21 -273 0 -315 2 -315 15 0 8
3 16 8 16 8 2 59 6 85 8 14 1 17 12 17 74 0 53 5 79 18 97 17 25 17 24 22 -75
l5 -99 35 -1 35 0 3 145 c2 116 6 148 19 162 9 10 20 18 24 18 5 0 7 -72 6
-160z m-397 -95 c24 -31 41 -58 38 -61 -5 -4 -88 100 -88 111 0 12 10 2 50
-50z m888 -6 c-23 -33 -44 -55 -46 -49 -3 9 74 110 84 110 3 0 -15 -27 -38
-61z m-784 -61 c7 -12 6 -21 -3 -32 -18 -22 -38 -20 -51 3 -7 15 -6 24 6 36
19 18 33 16 48 -7z m726 -12 c0 -20 -27 -39 -45 -32 -18 7 -20 52 -2 59 17 6
47 -11 47 -27z"/>
<path d="M1660 1111 c-5 -11 -10 -35 -10 -53 0 -32 1 -33 45 -33 l45 0 0 41
c0 22 -5 45 -12 52 -18 18 -56 14 -68 -7z"/>
<path d="M1927 1051 c122 -151 148 -180 154 -174 3 5 19 44 34 88 14 44 29 86
32 93 3 9 -11 12 -54 12 -32 1 -90 6 -130 13 l-72 13 36 -45z"/>
<path d="M1465 1089 c-16 -5 -72 -12 -122 -15 -51 -4 -93 -10 -93 -13 0 -7 62
-184 67 -190 2 -3 9 3 16 11 6 9 47 60 91 113 43 53 77 97 75 99 -2 2 -17 -1
-34 -5z"/>
</g>
</svg>
